SplineFontDB: 3.2
FontName: Garmin5x5
FullName: Garmin 5x5 Regular
FamilyName: Garmin 5x5
Weight: Book
Copyright: Copyright MagneticEagle 2024
Version: 1.0
ItalicAngle: 0
UnderlinePosition: 153
UnderlineWidth: 102
Ascent: 2048
Descent: 0
InvalidEm: 0
sfntRevision: 0x00010000
LayerCount: 2
Layer: 0 1 "Hinten" 1
Layer: 1 1 "Vorne" 0
XUID: [1021 951 1615116675 14349483]
StyleMap: 0x0040
FSType: 4
OS2Version: 2
OS2_WeightWidthSlopeOnly: 0
OS2_UseTypoMetrics: 0
CreationTime: 1710510576
ModificationTime: 1710510885
PfmFamily: 81
TTFWeight: 400
TTFWidth: 5
LineGap: 0
VLineGap: 0
Panose: 0 0 4 0 0 0 0 0 0 0
OS2TypoAscent: 2048
OS2TypoAOffset: 0
OS2TypoDescent: 0
OS2TypoDOffset: 0
OS2TypoLinegap: 0
OS2WinAscent: 2048
OS2WinAOffset: 0
OS2WinDescent: 0
OS2WinDOffset: 0
HheadAscent: 2048
HheadAOffset: 0
HheadDescent: 0
HheadDOffset: 0
OS2SubXSize: 1024
OS2SubYSize: 1024
OS2SubXOff: 0
OS2SubYOff: 0
OS2SupXSize: 1024
OS2SupYSize: 1024
OS2SupXOff: 0
OS2SupYOff: 1024
OS2StrikeYSize: 102
OS2StrikeYPos: 409
OS2CapHeight: 2048
OS2Vendor: 'FSTR'
OS2CodePages: 200101ff.cdff0000
OS2UnicodeRanges: 00000001.00000000.00000000.00000000
MarkAttachClasses: 1
DEI: 91125
ShortTable: maxp 16
  1
  0
  75
  36
  9
  0
  0
  2
  0
  0
  0
  0
  0
  0
  0
  0
EndShort
LangName: 1033 "" "" "Regular" "Garmin 5x5" "" "Version 1.0" "" "FontStruct is a trademark of FontStruct.com" "https://fontstruct.com" "MagneticEagle" "+IBwA-Garmin 5x5+IB0A was built with FontStruct+AAoA" "https://fontstruct.com/fontstructions/show/2445554/garmin-5x5" "https://fontstruct.com/fontstructors/show/2409723/magneticeagle" "FontStruct Non-Commercial License" "" "" "" "" "" "Five big quacking zephyrs jolt my wax bed"
Encoding: UnicodeBmp
UnicodeInterp: none
NameList: AGL For New Fonts
DisplaySize: -48
AntiAlias: 1
FitToEm: 0
WinInfo: 0 32 11
BeginPrivate: 0
EndPrivate
BeginChars: 65537 75

StartChar: .notdef
Encoding: 65536 -1 0
Width: 1984
Flags: W
LayerCount: 2
Fore
SplineSet
1506 50 m 1,0,-1
 787 1004 l 1,1,-1
 69 50 l 1,2,-1
 1506 50 l 1,0,-1
50 69 m 1,3,-1
 768 1024 l 1,4,-1
 50 1978 l 1,5,-1
 50 69 l 1,3,-1
1525 69 m 1,6,-1
 1525 1978 l 1,7,-1
 806 1024 l 1,8,-1
 1525 69 l 1,6,-1
787 1043 m 1,9,-1
 1506 1998 l 1,10,-1
 69 1998 l 1,11,-1
 787 1043 l 1,9,-1
0 0 m 1,12,-1
 0 2048 l 1,13,-1
 1575 2048 l 1,14,-1
 1575 0 l 1,15,-1
 0 0 l 1,12,-1
EndSplineSet
EndChar

StartChar: exclam
Encoding: 33 33 2
Width: 2457
Flags: W
LayerCount: 2
Fore
SplineSet
1024 0 m 1,0,-1
 1024 409 l 1,1,-1
 1433 409 l 1,2,-1
 1433 0 l 1,3,-1
 1024 0 l 1,0,-1
1024 819 m 1,4,-1
 1024 2048 l 1,5,-1
 1433 2048 l 1,6,-1
 1433 819 l 1,7,-1
 1024 819 l 1,4,-1
EndSplineSet
EndChar

StartChar: quotedbl
Encoding: 34 34 3
Width: 2457
Flags: W
LayerCount: 2
Fore
SplineSet
614 1228 m 1,0,-1
 614 2048 l 1,1,-1
 1024 2048 l 1,2,-1
 1024 1228 l 1,3,-1
 614 1228 l 1,0,-1
1433 1228 m 1,4,-1
 1433 2048 l 1,5,-1
 1843 2048 l 1,6,-1
 1843 1228 l 1,7,-1
 1433 1228 l 1,4,-1
EndSplineSet
EndChar

StartChar: numbersign
Encoding: 35 35 4
Width: 2457
Flags: W
LayerCount: 2
Fore
SplineSet
1432.5 819 m 1,0,-1
 1432.5 1228 l 1,1,-1
 1023.5 1228 l 1,2,-1
 1023.5 819 l 1,3,-1
 1432.5 819 l 1,0,-1
613.5 0 m 1,4,-1
 613.5 409 l 1,5,-1
 204.5 409 l 1,6,-1
 204.5 819 l 1,7,-1
 613.5 819 l 1,8,-1
 613.5 1228 l 1,9,-1
 204.5 1228 l 1,10,-1
 204.5 1638 l 1,11,-1
 613.5 1638 l 1,12,-1
 613.5 2048 l 1,13,-1
 1023.5 2048 l 1,14,-1
 1023.5 1638 l 1,15,-1
 1432.5 1638 l 1,16,-1
 1432.5 2048 l 1,17,-1
 1842.5 2048 l 1,18,-1
 1842.5 1638 l 1,19,-1
 2252.5 1638 l 1,20,-1
 2252.5 1228 l 1,21,-1
 1842.5 1228 l 1,22,-1
 1842.5 819 l 1,23,-1
 2252.5 819 l 1,24,-1
 2252.5 409 l 1,25,-1
 1842.5 409 l 1,26,-1
 1842.5 0 l 1,27,-1
 1432.5 0 l 1,28,-1
 1432.5 409 l 1,29,-1
 1023.5 409 l 1,30,-1
 1023.5 0 l 1,31,-1
 613.5 0 l 1,4,-1
EndSplineSet
EndChar

StartChar: dollar
Encoding: 36 36 5
Width: 2457
Flags: W
LayerCount: 2
Fore
SplineSet
1842.5 409 m 1,0,-1
 1842.5 819 l 1,1,-1
 2252.5 819 l 1,2,-1
 2252.5 409 l 1,3,-1
 1842.5 409 l 1,0,-1
204.5 1228 m 1,4,-1
 204.5 1638 l 1,5,-1
 613.5 1638 l 1,6,-1
 613.5 1228 l 1,7,-1
 204.5 1228 l 1,4,-1
613.5 0 m 1,8,-1
 613.5 409 l 1,9,-1
 1023.5 409 l 1,10,-1
 1023.5 819 l 1,11,-1
 613.5 819 l 1,12,-1
 613.5 1228 l 1,13,-1
 1023.5 1228 l 1,14,-1
 1023.5 1638 l 1,15,-1
 613.5 1638 l 1,16,-1
 613.5 2048 l 1,17,-1
 1842.5 2048 l 1,18,-1
 1842.5 1638 l 1,19,-1
 1432.5 1638 l 1,20,-1
 1432.5 1228 l 1,21,-1
 1842.5 1228 l 1,22,-1
 1842.5 819 l 1,23,-1
 1432.5 819 l 1,24,-1
 1432.5 409 l 1,25,-1
 1842.5 409 l 1,26,-1
 1842.5 0 l 1,27,-1
 613.5 0 l 1,8,-1
EndSplineSet
EndChar

StartChar: percent
Encoding: 37 37 6
Width: 2457
Flags: W
LayerCount: 2
Fore
SplineSet
204.5 0 m 1,0,-1
 204.5 409 l 1,1,-1
 613.5 409 l 1,2,-1
 613.5 0 l 1,3,-1
 204.5 0 l 1,0,-1
613.5 409 m 1,4,-1
 613.5 819 l 1,5,-1
 1023.5 819 l 1,6,-1
 1023.5 409 l 1,7,-1
 613.5 409 l 1,4,-1
1842.5 0 m 1,8,-1
 1842.5 819 l 1,9,-1
 2252.5 819 l 1,10,-1
 2252.5 0 l 1,11,-1
 1842.5 0 l 1,8,-1
1023.5 819 m 1,12,-1
 1023.5 1228 l 1,13,-1
 1432.5 1228 l 1,14,-1
 1432.5 819 l 1,15,-1
 1023.5 819 l 1,12,-1
1432.5 1228 m 1,16,-1
 1432.5 1638 l 1,17,-1
 1842.5 1638 l 1,18,-1
 1842.5 1228 l 1,19,-1
 1432.5 1228 l 1,16,-1
204.5 1228 m 1,20,-1
 204.5 2048 l 1,21,-1
 613.5 2048 l 1,22,-1
 613.5 1228 l 1,23,-1
 204.5 1228 l 1,20,-1
1842.5 1638 m 1,24,-1
 1842.5 2048 l 1,25,-1
 2252.5 2048 l 1,26,-1
 2252.5 1638 l 1,27,-1
 1842.5 1638 l 1,24,-1
EndSplineSet
EndChar

StartChar: ampersand
Encoding: 38 38 7
Width: 2457
Flags: W
LayerCount: 2
Fore
SplineSet
613.5 0 m 1,0,-1
 613.5 409 l 1,1,-1
 1023.5 409 l 1,2,-1
 1023.5 0 l 1,3,-1
 613.5 0 l 1,0,-1
1842.5 0 m 1,4,-1
 1842.5 409 l 1,5,-1
 2252.5 409 l 1,6,-1
 2252.5 0 l 1,7,-1
 1842.5 0 l 1,4,-1
204.5 409 m 1,8,-1
 204.5 819 l 1,9,-1
 613.5 819 l 1,10,-1
 613.5 409 l 1,11,-1
 204.5 409 l 1,8,-1
1023.5 409 m 1,12,-1
 1023.5 819 l 1,13,-1
 613.5 819 l 1,14,-1
 613.5 1638 l 1,15,-1
 1023.5 1638 l 1,16,-1
 1023.5 1228 l 1,17,-1
 1432.5 1228 l 1,18,-1
 1432.5 819 l 1,19,-1
 1842.5 819 l 1,20,-1
 1842.5 409 l 1,21,-1
 1023.5 409 l 1,12,-1
1432.5 1228 m 1,22,-1
 1432.5 1638 l 1,23,-1
 1842.5 1638 l 1,24,-1
 1842.5 1228 l 1,25,-1
 1432.5 1228 l 1,22,-1
1023.5 1638 m 1,26,-1
 1023.5 2048 l 1,27,-1
 1432.5 2048 l 1,28,-1
 1432.5 1638 l 1,29,-1
 1023.5 1638 l 1,26,-1
EndSplineSet
EndChar

StartChar: quotesingle
Encoding: 39 39 8
Width: 2457
Flags: W
LayerCount: 2
Fore
SplineSet
1024 1228 m 1,0,-1
 1024 2048 l 1,1,-1
 1433 2048 l 1,2,-1
 1433 1228 l 1,3,-1
 1024 1228 l 1,0,-1
EndSplineSet
EndChar

StartChar: parenleft
Encoding: 40 40 9
Width: 2457
Flags: W
LayerCount: 2
Fore
SplineSet
1229 0 m 1,0,-1
 1229 409 l 1,1,-1
 1638 409 l 1,2,-1
 1638 0 l 1,3,-1
 1229 0 l 1,0,-1
819 409 m 1,4,-1
 819 1638 l 1,5,-1
 1229 1638 l 1,6,-1
 1229 409 l 1,7,-1
 819 409 l 1,4,-1
1229 1638 m 1,8,-1
 1229 2048 l 1,9,-1
 1638 2048 l 1,10,-1
 1638 1638 l 1,11,-1
 1229 1638 l 1,8,-1
EndSplineSet
EndChar

StartChar: parenright
Encoding: 41 41 10
Width: 2457
Flags: W
LayerCount: 2
Fore
SplineSet
819 0 m 1,0,-1
 819 409 l 1,1,-1
 1228 409 l 1,2,-1
 1228 0 l 1,3,-1
 819 0 l 1,0,-1
1228 409 m 1,4,-1
 1228 1638 l 1,5,-1
 1638 1638 l 1,6,-1
 1638 409 l 1,7,-1
 1228 409 l 1,4,-1
819 1638 m 1,8,-1
 819 2048 l 1,9,-1
 1228 2048 l 1,10,-1
 1228 1638 l 1,11,-1
 819 1638 l 1,8,-1
EndSplineSet
EndChar

StartChar: asterisk
Encoding: 42 42 11
Width: 2457
Flags: W
LayerCount: 2
Fore
SplineSet
1024 819 m 1,0,-1
 1024 1228 l 1,1,-1
 614 1228 l 1,2,-1
 614 1638 l 1,3,-1
 1024 1638 l 1,4,-1
 1024 2048 l 1,5,-1
 1433 2048 l 1,6,-1
 1433 1638 l 1,7,-1
 1843 1638 l 1,8,-1
 1843 1228 l 1,9,-1
 1433 1228 l 1,10,-1
 1433 819 l 1,11,-1
 1024 819 l 1,0,-1
EndSplineSet
EndChar

StartChar: plus
Encoding: 43 43 12
Width: 2457
Flags: W
LayerCount: 2
Fore
SplineSet
1023.5 0 m 1,0,-1
 1023.5 819 l 1,1,-1
 204.5 819 l 1,2,-1
 204.5 1228 l 1,3,-1
 1023.5 1228 l 1,4,-1
 1023.5 2048 l 1,5,-1
 1432.5 2048 l 1,6,-1
 1432.5 1228 l 1,7,-1
 2252.5 1228 l 1,8,-1
 2252.5 819 l 1,9,-1
 1432.5 819 l 1,10,-1
 1432.5 0 l 1,11,-1
 1023.5 0 l 1,0,-1
EndSplineSet
EndChar

StartChar: comma
Encoding: 44 44 13
Width: 2457
Flags: W
LayerCount: 2
Fore
SplineSet
1024 0 m 1,0,-1
 1024 819 l 1,1,-1
 1433 819 l 1,2,-1
 1433 0 l 1,3,-1
 1024 0 l 1,0,-1
EndSplineSet
EndChar

StartChar: hyphen
Encoding: 45 45 14
Width: 2457
Flags: W
LayerCount: 2
Fore
SplineSet
204.5 819 m 1,0,-1
 204.5 1228 l 1,1,-1
 2252.5 1228 l 1,2,-1
 2252.5 819 l 1,3,-1
 204.5 819 l 1,0,-1
EndSplineSet
EndChar

StartChar: period
Encoding: 46 46 15
Width: 2457
Flags: W
LayerCount: 2
Fore
SplineSet
1024 0 m 1,0,-1
 1024 409 l 1,1,-1
 1433 409 l 1,2,-1
 1433 0 l 1,3,-1
 1024 0 l 1,0,-1
EndSplineSet
EndChar

StartChar: slash
Encoding: 47 47 16
Width: 2457
Flags: W
LayerCount: 2
Fore
SplineSet
614 0 m 1,0,-1
 614 409 l 1,1,-1
 1024 409 l 1,2,-1
 1024 0 l 1,3,-1
 614 0 l 1,0,-1
1024 409 m 1,4,-1
 1024 1638 l 1,5,-1
 1433 1638 l 1,6,-1
 1433 409 l 1,7,-1
 1024 409 l 1,4,-1
1433 1638 m 1,8,-1
 1433 2048 l 1,9,-1
 1843 2048 l 1,10,-1
 1843 1638 l 1,11,-1
 1433 1638 l 1,8,-1
EndSplineSet
EndChar

StartChar: zero
Encoding: 48 48 17
Width: 2457
Flags: W
LayerCount: 2
Fore
SplineSet
1842.5 409 m 1,0,-1
 1842.5 1638 l 1,1,-1
 613.5 1638 l 1,2,-1
 613.5 409 l 1,3,-1
 1842.5 409 l 1,0,-1
204.5 0 m 1,4,-1
 204.5 2048 l 1,5,-1
 2252.5 2048 l 1,6,-1
 2252.5 0 l 1,7,-1
 204.5 0 l 1,4,-1
EndSplineSet
EndChar

StartChar: one
Encoding: 49 49 18
Width: 2457
Flags: W
LayerCount: 2
Fore
SplineSet
614 0 m 1,0,-1
 614 409 l 1,1,-1
 1024 409 l 1,2,-1
 1024 1638 l 1,3,-1
 614 1638 l 1,4,-1
 614 2048 l 1,5,-1
 1433 2048 l 1,6,-1
 1433 409 l 1,7,-1
 1843 409 l 1,8,-1
 1843 0 l 1,9,-1
 614 0 l 1,0,-1
EndSplineSet
EndChar

StartChar: two
Encoding: 50 50 19
Width: 2457
Flags: W
LayerCount: 2
Fore
SplineSet
409.5 0 m 1,0,-1
 409.5 1228 l 1,1,-1
 1637.5 1228 l 1,2,-1
 1637.5 1638 l 1,3,-1
 409.5 1638 l 1,4,-1
 409.5 2048 l 1,5,-1
 2047.5 2048 l 1,6,-1
 2047.5 819 l 1,7,-1
 818.5 819 l 1,8,-1
 818.5 409 l 1,9,-1
 2047.5 409 l 1,10,-1
 2047.5 0 l 1,11,-1
 409.5 0 l 1,0,-1
EndSplineSet
EndChar

StartChar: three
Encoding: 51 51 20
Width: 2457
Flags: W
LayerCount: 2
Fore
SplineSet
409.5 0 m 1,0,-1
 409.5 409 l 1,1,-1
 1637.5 409 l 1,2,-1
 1637.5 819 l 1,3,-1
 818.5 819 l 1,4,-1
 818.5 1228 l 1,5,-1
 1637.5 1228 l 1,6,-1
 1637.5 1638 l 1,7,-1
 409.5 1638 l 1,8,-1
 409.5 2048 l 1,9,-1
 2047.5 2048 l 1,10,-1
 2047.5 0 l 1,11,-1
 409.5 0 l 1,0,-1
EndSplineSet
EndChar

StartChar: four
Encoding: 52 52 21
Width: 2457
Flags: W
LayerCount: 2
Fore
SplineSet
1228 0 m 1,0,-1
 1228 409 l 1,1,-1
 409 409 l 1,2,-1
 409 1228 l 1,3,-1
 819 1228 l 1,4,-1
 819 819 l 1,5,-1
 2048 819 l 1,6,-1
 2048 409 l 1,7,-1
 1638 409 l 1,8,-1
 1638 0 l 1,9,-1
 1228 0 l 1,0,-1
819 1228 m 1,10,-1
 819 1638 l 1,11,-1
 1228 1638 l 1,12,-1
 1228 1228 l 1,13,-1
 819 1228 l 1,10,-1
1228 1638 m 1,14,-1
 1228 2048 l 1,15,-1
 1638 2048 l 1,16,-1
 1638 1638 l 1,17,-1
 1228 1638 l 1,14,-1
EndSplineSet
EndChar

StartChar: five
Encoding: 53 53 22
Width: 2457
Flags: W
LayerCount: 2
Fore
SplineSet
204.5 0 m 1,0,-1
 204.5 409 l 1,1,-1
 1842.5 409 l 1,2,-1
 1842.5 819 l 1,3,-1
 204.5 819 l 1,4,-1
 204.5 2048 l 1,5,-1
 2252.5 2048 l 1,6,-1
 2252.5 1638 l 1,7,-1
 613.5 1638 l 1,8,-1
 613.5 1228 l 1,9,-1
 2252.5 1228 l 1,10,-1
 2252.5 0 l 1,11,-1
 204.5 0 l 1,0,-1
EndSplineSet
EndChar

StartChar: six
Encoding: 54 54 23
Width: 2457
Flags: W
LayerCount: 2
Fore
SplineSet
1842.5 409 m 1,0,-1
 1842.5 819 l 1,1,-1
 613.5 819 l 1,2,-1
 613.5 409 l 1,3,-1
 1842.5 409 l 1,0,-1
204.5 0 m 1,4,-1
 204.5 2048 l 1,5,-1
 2252.5 2048 l 1,6,-1
 2252.5 1638 l 1,7,-1
 613.5 1638 l 1,8,-1
 613.5 1228 l 1,9,-1
 2252.5 1228 l 1,10,-1
 2252.5 0 l 1,11,-1
 204.5 0 l 1,4,-1
EndSplineSet
EndChar

StartChar: seven
Encoding: 55 55 24
Width: 2457
Flags: W
LayerCount: 2
Fore
SplineSet
1023.5 0 m 1,0,-1
 1023.5 819 l 1,1,-1
 1432.5 819 l 1,2,-1
 1432.5 0 l 1,3,-1
 1023.5 0 l 1,0,-1
1432.5 819 m 1,4,-1
 1432.5 1228 l 1,5,-1
 1842.5 1228 l 1,6,-1
 1842.5 819 l 1,7,-1
 1432.5 819 l 1,4,-1
1842.5 1228 m 1,8,-1
 1842.5 1638 l 1,9,-1
 204.5 1638 l 1,10,-1
 204.5 2048 l 1,11,-1
 2252.5 2048 l 1,12,-1
 2252.5 1228 l 1,13,-1
 1842.5 1228 l 1,8,-1
EndSplineSet
EndChar

StartChar: eight
Encoding: 56 56 25
Width: 2457
Flags: W
LayerCount: 2
Fore
SplineSet
1842.5 409 m 1,0,-1
 1842.5 819 l 1,1,-1
 613.5 819 l 1,2,-1
 613.5 409 l 1,3,-1
 1842.5 409 l 1,0,-1
1842.5 1228 m 1,4,-1
 1842.5 1638 l 1,5,-1
 613.5 1638 l 1,6,-1
 613.5 1228 l 1,7,-1
 1842.5 1228 l 1,4,-1
204.5 0 m 1,8,-1
 204.5 2048 l 1,9,-1
 2252.5 2048 l 1,10,-1
 2252.5 0 l 1,11,-1
 204.5 0 l 1,8,-1
EndSplineSet
EndChar

StartChar: nine
Encoding: 57 57 26
Width: 2457
Flags: W
LayerCount: 2
Fore
SplineSet
1842.5 1228 m 1,0,-1
 1842.5 1638 l 1,1,-1
 613.5 1638 l 1,2,-1
 613.5 1228 l 1,3,-1
 1842.5 1228 l 1,0,-1
204.5 0 m 1,4,-1
 204.5 409 l 1,5,-1
 1842.5 409 l 1,6,-1
 1842.5 819 l 1,7,-1
 204.5 819 l 1,8,-1
 204.5 2048 l 1,9,-1
 2252.5 2048 l 1,10,-1
 2252.5 0 l 1,11,-1
 204.5 0 l 1,4,-1
EndSplineSet
EndChar

StartChar: colon
Encoding: 58 58 27
Width: 1638
Flags: W
LayerCount: 2
Fore
SplineSet
614.5 0 m 1,0,-1
 614.5 409 l 1,1,-1
 1023.5 409 l 1,2,-1
 1023.5 0 l 1,3,-1
 614.5 0 l 1,0,-1
614.5 1228 m 1,4,-1
 614.5 1638 l 1,5,-1
 1023.5 1638 l 1,6,-1
 1023.5 1228 l 1,7,-1
 614.5 1228 l 1,4,-1
EndSplineSet
EndChar

StartChar: semicolon
Encoding: 59 59 28
Width: 1638
Flags: W
LayerCount: 2
Fore
SplineSet
614.5 0 m 1,0,-1
 614.5 819 l 1,1,-1
 1023.5 819 l 1,2,-1
 1023.5 0 l 1,3,-1
 614.5 0 l 1,0,-1
614.5 1228 m 1,4,-1
 614.5 1638 l 1,5,-1
 1023.5 1638 l 1,6,-1
 1023.5 1228 l 1,7,-1
 614.5 1228 l 1,4,-1
EndSplineSet
EndChar

StartChar: less
Encoding: 60 60 29
Width: 2048
Flags: W
LayerCount: 2
Fore
SplineSet
819.5 0 m 1,0,-1
 819.5 409 l 1,1,-1
 1638.5 409 l 1,2,-1
 1638.5 0 l 1,3,-1
 819.5 0 l 1,0,-1
409.5 409 m 1,4,-1
 409.5 819 l 1,5,-1
 819.5 819 l 1,6,-1
 819.5 409 l 1,7,-1
 409.5 409 l 1,4,-1
819.5 819 m 1,8,-1
 819.5 1228 l 1,9,-1
 1638.5 1228 l 1,10,-1
 1638.5 819 l 1,11,-1
 819.5 819 l 1,8,-1
EndSplineSet
EndChar

StartChar: equal
Encoding: 61 61 30
Width: 2457
Flags: W
LayerCount: 2
Fore
SplineSet
204.5 409 m 1,0,-1
 204.5 819 l 1,1,-1
 2252.5 819 l 1,2,-1
 2252.5 409 l 1,3,-1
 204.5 409 l 1,0,-1
204.5 1228 m 1,4,-1
 204.5 1638 l 1,5,-1
 2252.5 1638 l 1,6,-1
 2252.5 1228 l 1,7,-1
 204.5 1228 l 1,4,-1
EndSplineSet
EndChar

StartChar: greater
Encoding: 62 62 31
Width: 2048
Flags: W
LayerCount: 2
Fore
SplineSet
409.5 0 m 1,0,-1
 409.5 409 l 1,1,-1
 1228.5 409 l 1,2,-1
 1228.5 0 l 1,3,-1
 409.5 0 l 1,0,-1
1228.5 409 m 1,4,-1
 1228.5 819 l 1,5,-1
 1638.5 819 l 1,6,-1
 1638.5 409 l 1,7,-1
 1228.5 409 l 1,4,-1
409.5 819 m 1,8,-1
 409.5 1228 l 1,9,-1
 1228.5 1228 l 1,10,-1
 1228.5 819 l 1,11,-1
 409.5 819 l 1,8,-1
EndSplineSet
EndChar

StartChar: question
Encoding: 63 63 32
Width: 2048
Flags: W
LayerCount: 2
Fore
SplineSet
819.5 0 m 1,0,-1
 819.5 409 l 1,1,-1
 1228.5 409 l 1,2,-1
 1228.5 0 l 1,3,-1
 819.5 0 l 1,0,-1
819.5 819 m 1,4,-1
 819.5 1228 l 1,5,-1
 1228.5 1228 l 1,6,-1
 1228.5 819 l 1,7,-1
 819.5 819 l 1,4,-1
1228.5 1228 m 1,8,-1
 1228.5 1638 l 1,9,-1
 409.5 1638 l 1,10,-1
 409.5 2048 l 1,11,-1
 1638.5 2048 l 1,12,-1
 1638.5 1228 l 1,13,-1
 1228.5 1228 l 1,8,-1
EndSplineSet
EndChar

StartChar: A
Encoding: 65 65 33
Width: 2457
Flags: W
LayerCount: 2
Fore
SplineSet
204.5 0 m 1,0,-1
 204.5 1638 l 1,1,-1
 613.5 1638 l 1,2,-1
 613.5 1228 l 1,3,-1
 1842.5 1228 l 1,4,-1
 1842.5 1638 l 1,5,-1
 2252.5 1638 l 1,6,-1
 2252.5 0 l 1,7,-1
 1842.5 0 l 1,8,-1
 1842.5 819 l 1,9,-1
 613.5 819 l 1,10,-1
 613.5 0 l 1,11,-1
 204.5 0 l 1,0,-1
613.5 1638 m 1,12,-1
 613.5 2048 l 1,13,-1
 1842.5 2048 l 1,14,-1
 1842.5 1638 l 1,15,-1
 613.5 1638 l 1,12,-1
EndSplineSet
EndChar

StartChar: B
Encoding: 66 66 34
Width: 2457
Flags: W
LayerCount: 2
Fore
SplineSet
1842.5 409 m 1,0,-1
 1842.5 819 l 1,1,-1
 2252.5 819 l 1,2,-1
 2252.5 409 l 1,3,-1
 1842.5 409 l 1,0,-1
1842.5 1228 m 1,4,-1
 1842.5 1638 l 1,5,-1
 2252.5 1638 l 1,6,-1
 2252.5 1228 l 1,7,-1
 1842.5 1228 l 1,4,-1
204.5 0 m 1,8,-1
 204.5 2048 l 1,9,-1
 1842.5 2048 l 1,10,-1
 1842.5 1638 l 1,11,-1
 613.5 1638 l 1,12,-1
 613.5 1228 l 1,13,-1
 1842.5 1228 l 1,14,-1
 1842.5 819 l 1,15,-1
 613.5 819 l 1,16,-1
 613.5 409 l 1,17,-1
 1842.5 409 l 1,18,-1
 1842.5 0 l 1,19,-1
 204.5 0 l 1,8,-1
EndSplineSet
EndChar

StartChar: C
Encoding: 67 67 35
Width: 2457
Flags: W
LayerCount: 2
Fore
SplineSet
613.5 0 m 1,0,-1
 613.5 409 l 1,1,-1
 2252.5 409 l 1,2,-1
 2252.5 0 l 1,3,-1
 613.5 0 l 1,0,-1
204.5 409 m 1,4,-1
 204.5 1638 l 1,5,-1
 613.5 1638 l 1,6,-1
 613.5 409 l 1,7,-1
 204.5 409 l 1,4,-1
613.5 1638 m 1,8,-1
 613.5 2048 l 1,9,-1
 2252.5 2048 l 1,10,-1
 2252.5 1638 l 1,11,-1
 613.5 1638 l 1,8,-1
EndSplineSet
EndChar

StartChar: D
Encoding: 68 68 36
Width: 2457
Flags: W
LayerCount: 2
Fore
SplineSet
1842.5 409 m 1,0,-1
 1842.5 1638 l 1,1,-1
 2252.5 1638 l 1,2,-1
 2252.5 409 l 1,3,-1
 1842.5 409 l 1,0,-1
204.5 0 m 1,4,-1
 204.5 2048 l 1,5,-1
 1842.5 2048 l 1,6,-1
 1842.5 1638 l 1,7,-1
 613.5 1638 l 1,8,-1
 613.5 409 l 1,9,-1
 1842.5 409 l 1,10,-1
 1842.5 0 l 1,11,-1
 204.5 0 l 1,4,-1
EndSplineSet
EndChar

StartChar: E
Encoding: 69 69 37
Width: 2457
Flags: W
LayerCount: 2
Fore
SplineSet
204.5 0 m 1,0,-1
 204.5 2048 l 1,1,-1
 2252.5 2048 l 1,2,-1
 2252.5 1638 l 1,3,-1
 613.5 1638 l 1,4,-1
 613.5 1228 l 1,5,-1
 1842.5 1228 l 1,6,-1
 1842.5 819 l 1,7,-1
 613.5 819 l 1,8,-1
 613.5 409 l 1,9,-1
 2252.5 409 l 1,10,-1
 2252.5 0 l 1,11,-1
 204.5 0 l 1,0,-1
EndSplineSet
EndChar

StartChar: F
Encoding: 70 70 38
Width: 2457
Flags: W
LayerCount: 2
Fore
SplineSet
204.5 0 m 1,0,-1
 204.5 2048 l 1,1,-1
 2252.5 2048 l 1,2,-1
 2252.5 1638 l 1,3,-1
 613.5 1638 l 1,4,-1
 613.5 1228 l 1,5,-1
 1842.5 1228 l 1,6,-1
 1842.5 819 l 1,7,-1
 613.5 819 l 1,8,-1
 613.5 0 l 1,9,-1
 204.5 0 l 1,0,-1
EndSplineSet
EndChar

StartChar: G
Encoding: 71 71 39
Width: 2457
Flags: W
LayerCount: 2
Fore
SplineSet
613.5 0 m 1,0,-1
 613.5 409 l 1,1,-1
 1842.5 409 l 1,2,-1
 1842.5 0 l 1,3,-1
 613.5 0 l 1,0,-1
1842.5 409 m 1,4,-1
 1842.5 819 l 1,5,-1
 1432.5 819 l 1,6,-1
 1432.5 1228 l 1,7,-1
 2252.5 1228 l 1,8,-1
 2252.5 409 l 1,9,-1
 1842.5 409 l 1,4,-1
204.5 409 m 1,10,-1
 204.5 1638 l 1,11,-1
 613.5 1638 l 1,12,-1
 613.5 409 l 1,13,-1
 204.5 409 l 1,10,-1
613.5 1638 m 1,14,-1
 613.5 2048 l 1,15,-1
 2252.5 2048 l 1,16,-1
 2252.5 1638 l 1,17,-1
 613.5 1638 l 1,14,-1
EndSplineSet
EndChar

StartChar: H
Encoding: 72 72 40
Width: 2457
Flags: W
LayerCount: 2
Fore
SplineSet
204.5 0 m 1,0,-1
 204.5 2048 l 1,1,-1
 613.5 2048 l 1,2,-1
 613.5 1228 l 1,3,-1
 1842.5 1228 l 1,4,-1
 1842.5 2048 l 1,5,-1
 2252.5 2048 l 1,6,-1
 2252.5 0 l 1,7,-1
 1842.5 0 l 1,8,-1
 1842.5 819 l 1,9,-1
 613.5 819 l 1,10,-1
 613.5 0 l 1,11,-1
 204.5 0 l 1,0,-1
EndSplineSet
EndChar

StartChar: I
Encoding: 73 73 41
Width: 2457
Flags: W
LayerCount: 2
Fore
SplineSet
614 0 m 1,0,-1
 614 409 l 1,1,-1
 1024 409 l 1,2,-1
 1024 1638 l 1,3,-1
 614 1638 l 1,4,-1
 614 2048 l 1,5,-1
 1843 2048 l 1,6,-1
 1843 1638 l 1,7,-1
 1433 1638 l 1,8,-1
 1433 409 l 1,9,-1
 1843 409 l 1,10,-1
 1843 0 l 1,11,-1
 614 0 l 1,0,-1
EndSplineSet
EndChar

StartChar: J
Encoding: 74 74 42
Width: 2457
Flags: W
LayerCount: 2
Fore
SplineSet
1024 0 m 1,0,-1
 1024 409 l 1,1,-1
 1433 409 l 1,2,-1
 1433 0 l 1,3,-1
 1024 0 l 1,0,-1
614 409 m 1,4,-1
 614 819 l 1,5,-1
 1024 819 l 1,6,-1
 1024 409 l 1,7,-1
 614 409 l 1,4,-1
1433 409 m 1,8,-1
 1433 2048 l 1,9,-1
 1843 2048 l 1,10,-1
 1843 409 l 1,11,-1
 1433 409 l 1,8,-1
EndSplineSet
EndChar

StartChar: K
Encoding: 75 75 43
Width: 2457
Flags: W
LayerCount: 2
Fore
SplineSet
1842.5 0 m 1,0,-1
 1842.5 409 l 1,1,-1
 2252.5 409 l 1,2,-1
 2252.5 0 l 1,3,-1
 1842.5 0 l 1,0,-1
1432.5 409 m 1,4,-1
 1432.5 819 l 1,5,-1
 1842.5 819 l 1,6,-1
 1842.5 409 l 1,7,-1
 1432.5 409 l 1,4,-1
1432.5 1228 m 1,8,-1
 1432.5 1638 l 1,9,-1
 1842.5 1638 l 1,10,-1
 1842.5 1228 l 1,11,-1
 1432.5 1228 l 1,8,-1
204.5 0 m 1,12,-1
 204.5 2048 l 1,13,-1
 613.5 2048 l 1,14,-1
 613.5 1228 l 1,15,-1
 1432.5 1228 l 1,16,-1
 1432.5 819 l 1,17,-1
 613.5 819 l 1,18,-1
 613.5 0 l 1,19,-1
 204.5 0 l 1,12,-1
1842.5 1638 m 1,20,-1
 1842.5 2048 l 1,21,-1
 2252.5 2048 l 1,22,-1
 2252.5 1638 l 1,23,-1
 1842.5 1638 l 1,20,-1
EndSplineSet
EndChar

StartChar: L
Encoding: 76 76 44
Width: 2457
Flags: W
LayerCount: 2
Fore
SplineSet
204.5 0 m 1,0,-1
 204.5 2048 l 1,1,-1
 613.5 2048 l 1,2,-1
 613.5 409 l 1,3,-1
 2252.5 409 l 1,4,-1
 2252.5 0 l 1,5,-1
 204.5 0 l 1,0,-1
EndSplineSet
EndChar

StartChar: M
Encoding: 77 77 45
Width: 2457
Flags: W
LayerCount: 2
Fore
SplineSet
1023.5 819 m 1,0,-1
 1023.5 1228 l 1,1,-1
 1432.5 1228 l 1,2,-1
 1432.5 819 l 1,3,-1
 1023.5 819 l 1,0,-1
204.5 0 m 1,4,-1
 204.5 2048 l 1,5,-1
 613.5 2048 l 1,6,-1
 613.5 1638 l 1,7,-1
 1023.5 1638 l 1,8,-1
 1023.5 1228 l 1,9,-1
 613.5 1228 l 1,10,-1
 613.5 0 l 1,11,-1
 204.5 0 l 1,4,-1
1842.5 0 m 1,12,-1
 1842.5 1228 l 1,13,-1
 1432.5 1228 l 1,14,-1
 1432.5 1638 l 1,15,-1
 1842.5 1638 l 1,16,-1
 1842.5 2048 l 1,17,-1
 2252.5 2048 l 1,18,-1
 2252.5 0 l 1,19,-1
 1842.5 0 l 1,12,-1
EndSplineSet
EndChar

StartChar: N
Encoding: 78 78 46
Width: 2457
Flags: W
LayerCount: 2
Fore
SplineSet
1023.5 819 m 1,0,-1
 1023.5 1228 l 1,1,-1
 1432.5 1228 l 1,2,-1
 1432.5 819 l 1,3,-1
 1023.5 819 l 1,0,-1
204.5 0 m 1,4,-1
 204.5 2048 l 1,5,-1
 613.5 2048 l 1,6,-1
 613.5 1638 l 1,7,-1
 1023.5 1638 l 1,8,-1
 1023.5 1228 l 1,9,-1
 613.5 1228 l 1,10,-1
 613.5 0 l 1,11,-1
 204.5 0 l 1,4,-1
1842.5 0 m 1,12,-1
 1842.5 409 l 1,13,-1
 1432.5 409 l 1,14,-1
 1432.5 819 l 1,15,-1
 1842.5 819 l 1,16,-1
 1842.5 2048 l 1,17,-1
 2252.5 2048 l 1,18,-1
 2252.5 0 l 1,19,-1
 1842.5 0 l 1,12,-1
EndSplineSet
EndChar

StartChar: O
Encoding: 79 79 47
Width: 2457
Flags: W
LayerCount: 2
Fore
SplineSet
613.5 0 m 1,0,-1
 613.5 409 l 1,1,-1
 1842.5 409 l 1,2,-1
 1842.5 0 l 1,3,-1
 613.5 0 l 1,0,-1
204.5 409 m 1,4,-1
 204.5 1638 l 1,5,-1
 613.5 1638 l 1,6,-1
 613.5 409 l 1,7,-1
 204.5 409 l 1,4,-1
1842.5 409 m 1,8,-1
 1842.5 1638 l 1,9,-1
 2252.5 1638 l 1,10,-1
 2252.5 409 l 1,11,-1
 1842.5 409 l 1,8,-1
613.5 1638 m 1,12,-1
 613.5 2048 l 1,13,-1
 1842.5 2048 l 1,14,-1
 1842.5 1638 l 1,15,-1
 613.5 1638 l 1,12,-1
EndSplineSet
EndChar

StartChar: P
Encoding: 80 80 48
Width: 2457
Flags: W
LayerCount: 2
Fore
SplineSet
1842.5 1228 m 1,0,-1
 1842.5 1638 l 1,1,-1
 2252.5 1638 l 1,2,-1
 2252.5 1228 l 1,3,-1
 1842.5 1228 l 1,0,-1
204.5 0 m 1,4,-1
 204.5 2048 l 1,5,-1
 1842.5 2048 l 1,6,-1
 1842.5 1638 l 1,7,-1
 613.5 1638 l 1,8,-1
 613.5 1228 l 1,9,-1
 1842.5 1228 l 1,10,-1
 1842.5 819 l 1,11,-1
 613.5 819 l 1,12,-1
 613.5 0 l 1,13,-1
 204.5 0 l 1,4,-1
EndSplineSet
EndChar

StartChar: Q
Encoding: 81 81 49
Width: 2457
Flags: W
LayerCount: 2
Fore
SplineSet
613.5 0 m 1,0,-1
 613.5 409 l 1,1,-1
 1432.5 409 l 1,2,-1
 1432.5 0 l 1,3,-1
 613.5 0 l 1,0,-1
1842.5 0 m 1,4,-1
 1842.5 409 l 1,5,-1
 2252.5 409 l 1,6,-1
 2252.5 0 l 1,7,-1
 1842.5 0 l 1,4,-1
1432.5 409 m 1,8,-1
 1432.5 819 l 1,9,-1
 1842.5 819 l 1,10,-1
 1842.5 409 l 1,11,-1
 1432.5 409 l 1,8,-1
1023.5 819 m 1,12,-1
 1023.5 1228 l 1,13,-1
 1432.5 1228 l 1,14,-1
 1432.5 819 l 1,15,-1
 1023.5 819 l 1,12,-1
204.5 409 m 1,16,-1
 204.5 1638 l 1,17,-1
 613.5 1638 l 1,18,-1
 613.5 409 l 1,19,-1
 204.5 409 l 1,16,-1
1842.5 819 m 1,20,-1
 1842.5 1638 l 1,21,-1
 2252.5 1638 l 1,22,-1
 2252.5 819 l 1,23,-1
 1842.5 819 l 1,20,-1
613.5 1638 m 1,24,-1
 613.5 2048 l 1,25,-1
 1842.5 2048 l 1,26,-1
 1842.5 1638 l 1,27,-1
 613.5 1638 l 1,24,-1
EndSplineSet
EndChar

StartChar: R
Encoding: 82 82 50
Width: 2457
Flags: W
LayerCount: 2
Fore
SplineSet
1842.5 0 m 1,0,-1
 1842.5 409 l 1,1,-1
 2252.5 409 l 1,2,-1
 2252.5 0 l 1,3,-1
 1842.5 0 l 1,0,-1
1842.5 1228 m 1,4,-1
 1842.5 1638 l 1,5,-1
 2252.5 1638 l 1,6,-1
 2252.5 1228 l 1,7,-1
 1842.5 1228 l 1,4,-1
204.5 0 m 1,8,-1
 204.5 2048 l 1,9,-1
 1842.5 2048 l 1,10,-1
 1842.5 1638 l 1,11,-1
 613.5 1638 l 1,12,-1
 613.5 1228 l 1,13,-1
 1842.5 1228 l 1,14,-1
 1842.5 409 l 1,15,-1
 1432.5 409 l 1,16,-1
 1432.5 819 l 1,17,-1
 613.5 819 l 1,18,-1
 613.5 0 l 1,19,-1
 204.5 0 l 1,8,-1
EndSplineSet
EndChar

StartChar: S
Encoding: 83 83 51
Width: 2457
Flags: W
LayerCount: 2
Fore
SplineSet
204.5 0 m 1,0,-1
 204.5 409 l 1,1,-1
 1842.5 409 l 1,2,-1
 1842.5 0 l 1,3,-1
 204.5 0 l 1,0,-1
1842.5 409 m 1,4,-1
 1842.5 819 l 1,5,-1
 2252.5 819 l 1,6,-1
 2252.5 409 l 1,7,-1
 1842.5 409 l 1,4,-1
613.5 819 m 1,8,-1
 613.5 1228 l 1,9,-1
 1842.5 1228 l 1,10,-1
 1842.5 819 l 1,11,-1
 613.5 819 l 1,8,-1
204.5 1228 m 1,12,-1
 204.5 1638 l 1,13,-1
 613.5 1638 l 1,14,-1
 613.5 1228 l 1,15,-1
 204.5 1228 l 1,12,-1
613.5 1638 m 1,16,-1
 613.5 2048 l 1,17,-1
 2252.5 2048 l 1,18,-1
 2252.5 1638 l 1,19,-1
 613.5 1638 l 1,16,-1
EndSplineSet
EndChar

StartChar: T
Encoding: 84 84 52
Width: 2457
Flags: W
LayerCount: 2
Fore
SplineSet
1023.5 0 m 1,0,-1
 1023.5 1638 l 1,1,-1
 204.5 1638 l 1,2,-1
 204.5 2048 l 1,3,-1
 2252.5 2048 l 1,4,-1
 2252.5 1638 l 1,5,-1
 1432.5 1638 l 1,6,-1
 1432.5 0 l 1,7,-1
 1023.5 0 l 1,0,-1
EndSplineSet
EndChar

StartChar: U
Encoding: 85 85 53
Width: 2457
Flags: W
LayerCount: 2
Fore
SplineSet
613.5 0 m 1,0,-1
 613.5 409 l 1,1,-1
 1842.5 409 l 1,2,-1
 1842.5 0 l 1,3,-1
 613.5 0 l 1,0,-1
204.5 409 m 1,4,-1
 204.5 2048 l 1,5,-1
 613.5 2048 l 1,6,-1
 613.5 409 l 1,7,-1
 204.5 409 l 1,4,-1
1842.5 409 m 1,8,-1
 1842.5 2048 l 1,9,-1
 2252.5 2048 l 1,10,-1
 2252.5 409 l 1,11,-1
 1842.5 409 l 1,8,-1
EndSplineSet
EndChar

StartChar: V
Encoding: 86 86 54
Width: 2457
Flags: W
LayerCount: 2
Fore
SplineSet
1023.5 0 m 1,0,-1
 1023.5 409 l 1,1,-1
 1432.5 409 l 1,2,-1
 1432.5 0 l 1,3,-1
 1023.5 0 l 1,0,-1
613.5 409 m 1,4,-1
 613.5 1228 l 1,5,-1
 1023.5 1228 l 1,6,-1
 1023.5 409 l 1,7,-1
 613.5 409 l 1,4,-1
1432.5 409 m 1,8,-1
 1432.5 1228 l 1,9,-1
 1842.5 1228 l 1,10,-1
 1842.5 409 l 1,11,-1
 1432.5 409 l 1,8,-1
204.5 1228 m 1,12,-1
 204.5 2048 l 1,13,-1
 613.5 2048 l 1,14,-1
 613.5 1228 l 1,15,-1
 204.5 1228 l 1,12,-1
1842.5 1228 m 1,16,-1
 1842.5 2048 l 1,17,-1
 2252.5 2048 l 1,18,-1
 2252.5 1228 l 1,19,-1
 1842.5 1228 l 1,16,-1
EndSplineSet
EndChar

StartChar: W
Encoding: 87 87 55
Width: 2457
Flags: W
LayerCount: 2
Fore
SplineSet
1023.5 819 m 1,0,-1
 1023.5 1228 l 1,1,-1
 1432.5 1228 l 1,2,-1
 1432.5 819 l 1,3,-1
 1023.5 819 l 1,0,-1
204.5 0 m 1,4,-1
 204.5 2048 l 1,5,-1
 613.5 2048 l 1,6,-1
 613.5 819 l 1,7,-1
 1023.5 819 l 1,8,-1
 1023.5 409 l 1,9,-1
 613.5 409 l 1,10,-1
 613.5 0 l 1,11,-1
 204.5 0 l 1,4,-1
1842.5 0 m 1,12,-1
 1842.5 409 l 1,13,-1
 1432.5 409 l 1,14,-1
 1432.5 819 l 1,15,-1
 1842.5 819 l 1,16,-1
 1842.5 2048 l 1,17,-1
 2252.5 2048 l 1,18,-1
 2252.5 0 l 1,19,-1
 1842.5 0 l 1,12,-1
EndSplineSet
EndChar

StartChar: X
Encoding: 88 88 56
Width: 2457
Flags: W
LayerCount: 2
Fore
SplineSet
204.5 0 m 1,0,-1
 204.5 409 l 1,1,-1
 613.5 409 l 1,2,-1
 613.5 0 l 1,3,-1
 204.5 0 l 1,0,-1
1842.5 0 m 1,4,-1
 1842.5 409 l 1,5,-1
 2252.5 409 l 1,6,-1
 2252.5 0 l 1,7,-1
 1842.5 0 l 1,4,-1
613.5 409 m 1,8,-1
 613.5 819 l 1,9,-1
 1023.5 819 l 1,10,-1
 1023.5 409 l 1,11,-1
 613.5 409 l 1,8,-1
1432.5 409 m 1,12,-1
 1432.5 819 l 1,13,-1
 1842.5 819 l 1,14,-1
 1842.5 409 l 1,15,-1
 1432.5 409 l 1,12,-1
1023.5 819 m 1,16,-1
 1023.5 1228 l 1,17,-1
 1432.5 1228 l 1,18,-1
 1432.5 819 l 1,19,-1
 1023.5 819 l 1,16,-1
613.5 1228 m 1,20,-1
 613.5 1638 l 1,21,-1
 1023.5 1638 l 1,22,-1
 1023.5 1228 l 1,23,-1
 613.5 1228 l 1,20,-1
1432.5 1228 m 1,24,-1
 1432.5 1638 l 1,25,-1
 1842.5 1638 l 1,26,-1
 1842.5 1228 l 1,27,-1
 1432.5 1228 l 1,24,-1
204.5 1638 m 1,28,-1
 204.5 2048 l 1,29,-1
 613.5 2048 l 1,30,-1
 613.5 1638 l 1,31,-1
 204.5 1638 l 1,28,-1
1842.5 1638 m 1,32,-1
 1842.5 2048 l 1,33,-1
 2252.5 2048 l 1,34,-1
 2252.5 1638 l 1,35,-1
 1842.5 1638 l 1,32,-1
EndSplineSet
EndChar

StartChar: Y
Encoding: 89 89 57
Width: 2457
Flags: W
LayerCount: 2
Fore
SplineSet
1023.5 0 m 1,0,-1
 1023.5 1228 l 1,1,-1
 1432.5 1228 l 1,2,-1
 1432.5 0 l 1,3,-1
 1023.5 0 l 1,0,-1
613.5 1228 m 1,4,-1
 613.5 1638 l 1,5,-1
 1023.5 1638 l 1,6,-1
 1023.5 1228 l 1,7,-1
 613.5 1228 l 1,4,-1
1432.5 1228 m 1,8,-1
 1432.5 1638 l 1,9,-1
 1842.5 1638 l 1,10,-1
 1842.5 1228 l 1,11,-1
 1432.5 1228 l 1,8,-1
204.5 1638 m 1,12,-1
 204.5 2048 l 1,13,-1
 613.5 2048 l 1,14,-1
 613.5 1638 l 1,15,-1
 204.5 1638 l 1,12,-1
1842.5 1638 m 1,16,-1
 1842.5 2048 l 1,17,-1
 2252.5 2048 l 1,18,-1
 2252.5 1638 l 1,19,-1
 1842.5 1638 l 1,16,-1
EndSplineSet
EndChar

StartChar: Z
Encoding: 90 90 58
Width: 2457
Flags: W
LayerCount: 2
Fore
SplineSet
204.5 0 m 1,0,-1
 204.5 409 l 1,1,-1
 613.5 409 l 1,2,-1
 613.5 819 l 1,3,-1
 1023.5 819 l 1,4,-1
 1023.5 409 l 1,5,-1
 2252.5 409 l 1,6,-1
 2252.5 0 l 1,7,-1
 204.5 0 l 1,0,-1
1023.5 819 m 1,8,-1
 1023.5 1228 l 1,9,-1
 1432.5 1228 l 1,10,-1
 1432.5 819 l 1,11,-1
 1023.5 819 l 1,8,-1
1432.5 1228 m 1,12,-1
 1432.5 1638 l 1,13,-1
 204.5 1638 l 1,14,-1
 204.5 2048 l 1,15,-1
 2252.5 2048 l 1,16,-1
 2252.5 1638 l 1,17,-1
 1842.5 1638 l 1,18,-1
 1842.5 1228 l 1,19,-1
 1432.5 1228 l 1,12,-1
EndSplineSet
EndChar

StartChar: bracketleft
Encoding: 91 91 59
Width: 2457
Flags: W
LayerCount: 2
Fore
SplineSet
819 0 m 1,0,-1
 819 2048 l 1,1,-1
 1638 2048 l 1,2,-1
 1638 1638 l 1,3,-1
 1229 1638 l 1,4,-1
 1229 409 l 1,5,-1
 1638 409 l 1,6,-1
 1638 0 l 1,7,-1
 819 0 l 1,0,-1
EndSplineSet
EndChar

StartChar: backslash
Encoding: 92 92 60
Width: 2457
Flags: W
LayerCount: 2
Fore
SplineSet
1433 0 m 1,0,-1
 1433 409 l 1,1,-1
 1843 409 l 1,2,-1
 1843 0 l 1,3,-1
 1433 0 l 1,0,-1
1024 409 m 1,4,-1
 1024 1638 l 1,5,-1
 1433 1638 l 1,6,-1
 1433 409 l 1,7,-1
 1024 409 l 1,4,-1
614 1638 m 1,8,-1
 614 2048 l 1,9,-1
 1024 2048 l 1,10,-1
 1024 1638 l 1,11,-1
 614 1638 l 1,8,-1
EndSplineSet
EndChar

StartChar: bracketright
Encoding: 93 93 61
Width: 2457
Flags: W
LayerCount: 2
Fore
SplineSet
819 0 m 1,0,-1
 819 409 l 1,1,-1
 1228 409 l 1,2,-1
 1228 1638 l 1,3,-1
 819 1638 l 1,4,-1
 819 2048 l 1,5,-1
 1638 2048 l 1,6,-1
 1638 0 l 1,7,-1
 819 0 l 1,0,-1
EndSplineSet
EndChar

StartChar: asciicircum
Encoding: 94 94 62
Width: 2457
Flags: W
LayerCount: 2
Fore
SplineSet
614 1228 m 1,0,-1
 614 1638 l 1,1,-1
 1024 1638 l 1,2,-1
 1024 1228 l 1,3,-1
 614 1228 l 1,0,-1
1433 1228 m 1,4,-1
 1433 1638 l 1,5,-1
 1843 1638 l 1,6,-1
 1843 1228 l 1,7,-1
 1433 1228 l 1,4,-1
1024 1638 m 1,8,-1
 1024 2048 l 1,9,-1
 1433 2048 l 1,10,-1
 1433 1638 l 1,11,-1
 1024 1638 l 1,8,-1
EndSplineSet
EndChar

StartChar: underscore
Encoding: 95 95 63
Width: 2457
Flags: W
LayerCount: 2
Fore
SplineSet
0 0 m 1,0,-1
 0 409 l 1,1,-1
 2457 409 l 1,2,-1
 2457 0 l 1,3,-1
 0 0 l 1,0,-1
EndSplineSet
EndChar

StartChar: grave
Encoding: 96 96 64
Width: 2457
Flags: W
LayerCount: 2
Fore
SplineSet
1229 1228 m 5,0,-1
 1229 1638 l 5,1,-1
 1638 1638 l 5,2,-1
 1638 1228 l 5,3,-1
 1229 1228 l 5,0,-1
819 1638 m 5,4,-1
 819 2048 l 5,5,-1
 1229 2048 l 5,6,-1
 1229 1638 l 5,7,-1
 819 1638 l 5,4,-1
EndSplineSet
EndChar

StartChar: m
Encoding: 109 109 65
Width: 2457
Flags: W
LayerCount: 2
Fore
SplineSet
1023.5 0 m 1,0,-1
 1023.5 819 l 1,1,-1
 1432.5 819 l 1,2,-1
 1432.5 0 l 1,3,-1
 1023.5 0 l 1,0,-1
1842.5 0 m 1,4,-1
 1842.5 819 l 1,5,-1
 2252.5 819 l 1,6,-1
 2252.5 0 l 1,7,-1
 1842.5 0 l 1,4,-1
204.5 0 m 1,8,-1
 204.5 1228 l 1,9,-1
 1023.5 1228 l 1,10,-1
 1023.5 819 l 1,11,-1
 613.5 819 l 1,12,-1
 613.5 0 l 1,13,-1
 204.5 0 l 1,8,-1
1432.5 819 m 1,14,-1
 1432.5 1228 l 1,15,-1
 1842.5 1228 l 1,16,-1
 1842.5 819 l 1,17,-1
 1432.5 819 l 1,14,-1
EndSplineSet
EndChar

StartChar: n
Encoding: 110 110 66
Width: 2457
Flags: W
LayerCount: 2
Fore
SplineSet
1018 0 m 5,0,-1
 1018 819 l 5,1,-1
 1427 819 l 5,2,-1
 1427 0 l 5,3,-1
 1018 0 l 5,0,-1
199 0 m 5,4,-1
 199 1228 l 5,5,-1
 1018 1228 l 5,6,-1
 1018 819 l 5,7,-1
 608 819 l 5,8,-1
 608 0 l 5,9,-1
 199 0 l 5,4,-1
EndSplineSet
EndChar

StartChar: braceleft
Encoding: 123 123 67
Width: 2457
Flags: W
LayerCount: 2
Fore
SplineSet
1433.5 0 m 1,0,-1
 1433.5 409 l 1,1,-1
 1842.5 409 l 1,2,-1
 1842.5 0 l 1,3,-1
 1433.5 0 l 1,0,-1
1023.5 409 m 1,4,-1
 1023.5 819 l 1,5,-1
 614.5 819 l 1,6,-1
 614.5 1228 l 1,7,-1
 1023.5 1228 l 1,8,-1
 1023.5 1638 l 1,9,-1
 1433.5 1638 l 1,10,-1
 1433.5 409 l 1,11,-1
 1023.5 409 l 1,4,-1
1433.5 1638 m 1,12,-1
 1433.5 2048 l 1,13,-1
 1842.5 2048 l 1,14,-1
 1842.5 1638 l 1,15,-1
 1433.5 1638 l 1,12,-1
EndSplineSet
EndChar

StartChar: bar
Encoding: 124 124 68
Width: 2457
Flags: W
LayerCount: 2
Fore
SplineSet
1024 0 m 1,0,-1
 1024 2048 l 1,1,-1
 1433 2048 l 1,2,-1
 1433 0 l 1,3,-1
 1024 0 l 1,0,-1
EndSplineSet
EndChar

StartChar: braceright
Encoding: 125 125 69
Width: 2457
Flags: W
LayerCount: 2
Fore
SplineSet
614 0 m 1,0,-1
 614 409 l 1,1,-1
 1023 409 l 1,2,-1
 1023 0 l 1,3,-1
 614 0 l 1,0,-1
1023 409 m 1,4,-1
 1023 1638 l 1,5,-1
 1433 1638 l 1,6,-1
 1433 1228 l 1,7,-1
 1843 1228 l 1,8,-1
 1843 819 l 1,9,-1
 1433 819 l 1,10,-1
 1433 409 l 1,11,-1
 1023 409 l 1,4,-1
614 1638 m 1,12,-1
 614 2048 l 1,13,-1
 1023 2048 l 1,14,-1
 1023 1638 l 1,15,-1
 614 1638 l 1,12,-1
EndSplineSet
EndChar

StartChar: asciitilde
Encoding: 126 126 70
Width: 2457
Flags: W
LayerCount: 2
Fore
SplineSet
1432.5 409 m 1,0,-1
 1432.5 819 l 1,1,-1
 1842.5 819 l 1,2,-1
 1842.5 409 l 1,3,-1
 1432.5 409 l 1,0,-1
204.5 819 m 1,4,-1
 204.5 1228 l 1,5,-1
 613.5 1228 l 1,6,-1
 613.5 819 l 1,7,-1
 204.5 819 l 1,4,-1
1023.5 819 m 1,8,-1
 1023.5 1228 l 1,9,-1
 1432.5 1228 l 1,10,-1
 1432.5 819 l 1,11,-1
 1023.5 819 l 1,8,-1
1842.5 819 m 1,12,-1
 1842.5 1228 l 1,13,-1
 2252.5 1228 l 1,14,-1
 2252.5 819 l 1,15,-1
 1842.5 819 l 1,12,-1
613.5 1228 m 1,16,-1
 613.5 1638 l 1,17,-1
 1023.5 1638 l 1,18,-1
 1023.5 1228 l 1,19,-1
 613.5 1228 l 1,16,-1
EndSplineSet
EndChar

StartChar: quoteleft
Encoding: 8216 8216 71
Width: 1638
Flags: W
LayerCount: 2
Fore
SplineSet
819 1228 m 1,0,-1
 819 2048 l 1,1,-1
 1228 2048 l 1,2,-1
 1228 1228 l 1,3,-1
 819 1228 l 1,0,-1
EndSplineSet
EndChar

StartChar: quoteright
Encoding: 8217 8217 72
Width: 1638
Flags: W
LayerCount: 2
Fore
SplineSet
819 1228 m 1,0,-1
 819 2048 l 1,1,-1
 1228 2048 l 1,2,-1
 1228 1228 l 1,3,-1
 819 1228 l 1,0,-1
EndSplineSet
EndChar

StartChar: quotedblleft
Encoding: 8220 8220 73
Width: 2048
Flags: W
LayerCount: 2
Fore
SplineSet
409 1228 m 1,0,-1
 409 2048 l 1,1,-1
 819 2048 l 1,2,-1
 819 1228 l 1,3,-1
 409 1228 l 1,0,-1
1228 1228 m 1,4,-1
 1228 2048 l 1,5,-1
 1638 2048 l 1,6,-1
 1638 1228 l 1,7,-1
 1228 1228 l 1,4,-1
EndSplineSet
EndChar

StartChar: quotedblright
Encoding: 8221 8221 74
Width: 2048
Flags: W
LayerCount: 2
Fore
SplineSet
409 1228 m 1,0,-1
 409 2048 l 1,1,-1
 819 2048 l 1,2,-1
 819 1228 l 1,3,-1
 409 1228 l 1,0,-1
1228 1228 m 1,4,-1
 1228 2048 l 1,5,-1
 1638 2048 l 1,6,-1
 1638 1228 l 1,7,-1
 1228 1228 l 1,4,-1
EndSplineSet
EndChar
